<svg width="272.387" height="31.649" viewBox="0 0 272.387 31.649" xmlns="http://www.w3.org/2000/svg"><g id="svgGroup" stroke-linecap="round" fill-rule="evenodd" font-size="9pt" stroke="#fffaf0" stroke-width="0.25mm" fill="none" style="stroke:#fffaf0;stroke-width:0.25mm;fill:none"><path d="M 14.886 10.171 L 8.523 31.251 L 0 31.251 L 9.602 2.16 L 20.398 2.16 L 30 31.251 L 21.477 31.251 L 15.114 10.171 L 14.886 10.171 Z M 6.932 25.683 L 6.932 19.774 L 22.955 19.774 L 22.955 25.683 L 6.932 25.683 Z" id="0"/><path d="M 40.739 18.978 L 40.739 31.251 L 32.898 31.251 L 32.898 9.433 L 40.341 9.433 L 40.341 13.58 L 40.568 13.58 Q 41.278 11.507 43.075 10.328 A 7.197 7.197 0 0 1 46.322 9.197 A 9.086 9.086 0 0 1 47.273 9.149 A 8.533 8.533 0 0 1 49.374 9.397 A 6.825 6.825 0 0 1 51.3 10.207 Q 53.011 11.265 53.956 13.112 A 8.477 8.477 0 0 1 54.812 15.982 Q 54.891 16.633 54.886 17.33 L 54.886 31.251 L 47.045 31.251 L 47.045 18.978 A 6.181 6.181 0 0 0 47.046 18.924 Q 47.046 17.637 46.504 16.796 A 2.823 2.823 0 0 0 46.229 16.436 A 2.722 2.722 0 0 0 44.66 15.577 A 4.002 4.002 0 0 0 43.92 15.512 A 3.77 3.77 0 0 0 43.07 15.604 A 2.962 2.962 0 0 0 42.237 15.931 Q 41.52 16.35 41.136 17.124 A 3.651 3.651 0 0 0 40.833 18.033 Q 40.745 18.472 40.739 18.978 Z" id="1"/><path d="M 72.727 13.24 L 72.841 13.24 L 72.841 2.16 L 80.682 2.16 L 80.682 31.251 L 72.898 31.251 L 72.898 27.671 L 72.727 27.671 A 6.226 6.226 0 0 1 71.428 29.653 A 6.019 6.019 0 0 1 69.604 30.933 A 6.955 6.955 0 0 1 69.382 31.031 Q 68.182 31.535 66.648 31.535 Q 64.318 31.535 62.365 30.313 A 7.714 7.714 0 0 1 60.161 28.198 A 10.46 10.46 0 0 1 59.24 26.606 Q 58.068 24.12 58.068 20.342 Q 58.068 17.486 58.711 15.403 A 9.836 9.836 0 0 1 59.297 13.921 A 10.221 10.221 0 0 1 60.463 12.071 A 7.388 7.388 0 0 1 62.479 10.299 A 7.98 7.98 0 0 1 66.591 9.149 A 7.922 7.922 0 0 1 68.022 9.272 A 5.929 5.929 0 0 1 69.432 9.71 A 6.303 6.303 0 0 1 70.953 10.681 A 5.708 5.708 0 0 1 71.477 11.201 A 6.672 6.672 0 0 1 72.727 13.24 Z M 69.545 25.512 A 3.076 3.076 0 0 0 70.578 25.344 A 2.729 2.729 0 0 0 71.399 24.88 A 3.508 3.508 0 0 0 72.176 23.974 A 4.921 4.921 0 0 0 72.592 23.09 Q 72.97 22.048 73.007 20.654 A 11.599 11.599 0 0 0 73.011 20.342 Q 73.011 18.963 72.707 17.919 A 5.806 5.806 0 0 0 72.592 17.565 A 4.873 4.873 0 0 0 72.193 16.713 Q 71.859 16.156 71.399 15.789 A 2.824 2.824 0 0 0 69.786 15.179 A 3.6 3.6 0 0 0 69.545 15.171 A 3.136 3.136 0 0 0 68.575 15.316 A 2.668 2.668 0 0 0 67.706 15.789 A 3.334 3.334 0 0 0 66.963 16.655 Q 66.718 17.058 66.541 17.565 A 6.739 6.739 0 0 0 66.254 18.73 Q 66.162 19.307 66.142 19.966 A 12.316 12.316 0 0 0 66.136 20.342 A 10.879 10.879 0 0 0 66.203 21.581 Q 66.276 22.219 66.43 22.765 A 5.952 5.952 0 0 0 66.541 23.119 A 4.856 4.856 0 0 0 66.929 23.97 Q 67.255 24.527 67.706 24.894 A 2.749 2.749 0 0 0 69.247 25.5 A 3.551 3.551 0 0 0 69.545 25.512 Z" id="2"/><path d="M 92.386 31.251 L 84.545 31.251 L 84.545 9.433 L 92.159 9.433 L 92.159 13.58 L 92.386 13.58 Q 92.808 11.956 93.579 10.947 A 4.396 4.396 0 0 1 94.283 10.214 A 4.66 4.66 0 0 1 97.33 9.149 Q 97.841 9.149 98.345 9.227 A 7.098 7.098 0 0 1 99.318 9.447 L 99.318 16.137 Q 98.736 15.938 97.884 15.839 A 17.555 17.555 0 0 0 97.278 15.778 Q 96.981 15.754 96.72 15.745 A 8.597 8.597 0 0 0 96.42 15.74 A 4.387 4.387 0 0 0 95.137 15.922 A 3.878 3.878 0 0 0 94.354 16.258 Q 93.438 16.776 92.912 17.707 A 4.015 4.015 0 0 0 92.448 19.066 A 5.247 5.247 0 0 0 92.386 19.887 L 92.386 31.251 Z" id="3"/><path d="M 123.011 20.342 L 123.011 22.16 L 103.523 22.16 L 103.523 17.842 L 115.795 17.842 A 3.316 3.316 0 0 0 115.638 16.857 A 2.893 2.893 0 0 0 115.32 16.187 Q 114.858 15.47 114.084 15.065 A 3.562 3.562 0 0 0 112.807 14.685 A 4.403 4.403 0 0 0 112.33 14.66 A 3.89 3.89 0 0 0 110.996 14.885 A 3.646 3.646 0 0 0 110.582 15.065 Q 109.787 15.47 109.311 16.18 A 2.975 2.975 0 0 0 108.837 17.465 A 3.721 3.721 0 0 0 108.807 17.842 L 108.807 22.501 A 4.288 4.288 0 0 0 108.939 23.583 A 3.593 3.593 0 0 0 109.247 24.376 Q 109.688 25.2 110.511 25.668 A 3.477 3.477 0 0 0 111.578 26.054 A 4.847 4.847 0 0 0 112.5 26.137 A 5.022 5.022 0 0 0 113.411 26.058 A 4.15 4.15 0 0 0 113.984 25.91 A 3.446 3.446 0 0 0 114.785 25.524 A 3.034 3.034 0 0 0 115.142 25.249 Q 115.625 24.816 115.852 24.205 L 123.011 24.205 Q 122.642 26.478 121.264 28.147 A 8.554 8.554 0 0 1 118.706 30.223 A 10.7 10.7 0 0 1 117.621 30.732 A 12.101 12.101 0 0 1 114.999 31.447 Q 113.748 31.649 112.33 31.649 A 15.27 15.27 0 0 1 109.458 31.392 A 11.079 11.079 0 0 1 106.314 30.306 A 9.248 9.248 0 0 1 102.436 26.443 Q 101.08 23.921 101.08 20.399 A 14.205 14.205 0 0 1 101.379 17.416 A 10.979 10.979 0 0 1 102.443 14.49 A 9.745 9.745 0 0 1 106.293 10.555 A 10.688 10.688 0 0 1 109.845 9.33 A 14.191 14.191 0 0 1 112.159 9.149 A 13.763 13.763 0 0 1 114.722 9.378 A 11.115 11.115 0 0 1 116.634 9.916 A 9.466 9.466 0 0 1 119.831 11.915 A 9.174 9.174 0 0 1 120.057 12.139 A 9.682 9.682 0 0 1 121.989 15.035 A 11.402 11.402 0 0 1 122.244 15.668 A 12.188 12.188 0 0 1 122.894 18.391 A 15.707 15.707 0 0 1 123.011 20.342 Z" id="4"/><path d="M 138.523 31.251 L 130.057 31.251 L 124.602 9.433 L 132.443 9.433 L 134.943 22.728 L 135.114 22.728 L 137.898 9.433 L 145.511 9.433 L 148.409 22.615 L 148.58 22.615 L 150.966 9.433 L 158.807 9.433 L 153.352 31.251 L 144.886 31.251 L 141.818 19.546 L 141.591 19.546 L 138.523 31.251 Z" id="5"/><path d="M 176.932 31.251 L 169.034 31.251 L 169.034 2.16 L 181.591 2.16 A 13.917 13.917 0 0 1 184.449 2.441 A 10.719 10.719 0 0 1 187.259 3.438 A 9.279 9.279 0 0 1 191.037 7.032 A 9.841 9.841 0 0 1 192.255 10.585 A 12.704 12.704 0 0 1 192.386 12.444 Q 192.386 15.569 191.001 17.856 A 9.2 9.2 0 0 1 187.124 21.379 Q 184.631 22.615 181.307 22.615 L 173.807 22.615 L 173.807 16.478 L 179.716 16.478 A 6.608 6.608 0 0 0 180.818 16.391 Q 181.436 16.286 181.95 16.056 A 3.984 3.984 0 0 0 182.095 15.988 Q 183.082 15.498 183.615 14.589 A 3.832 3.832 0 0 0 184.085 13.255 A 5.039 5.039 0 0 0 184.148 12.444 A 4.902 4.902 0 0 0 184.046 11.42 A 3.612 3.612 0 0 0 183.615 10.306 A 3.478 3.478 0 0 0 182.156 8.973 A 4.186 4.186 0 0 0 182.095 8.943 A 4.576 4.576 0 0 0 180.969 8.578 Q 180.463 8.481 179.883 8.469 A 7.933 7.933 0 0 0 179.716 8.467 L 176.932 8.467 L 176.932 31.251 Z" id="7"/><path d="M 203.239 31.251 L 195.398 31.251 L 195.398 9.433 L 203.011 9.433 L 203.011 13.58 L 203.239 13.58 Q 203.66 11.956 204.432 10.947 A 4.396 4.396 0 0 1 205.135 10.214 A 4.66 4.66 0 0 1 208.182 9.149 Q 208.693 9.149 209.197 9.227 A 7.098 7.098 0 0 1 210.17 9.447 L 210.17 16.137 Q 209.588 15.938 208.736 15.839 A 17.555 17.555 0 0 0 208.131 15.778 Q 207.833 15.754 207.572 15.745 A 8.597 8.597 0 0 0 207.273 15.74 A 4.387 4.387 0 0 0 205.989 15.922 A 3.878 3.878 0 0 0 205.206 16.258 Q 204.29 16.776 203.764 17.707 A 4.015 4.015 0 0 0 203.301 19.066 A 5.247 5.247 0 0 0 203.239 19.887 L 203.239 31.251 Z" id="8"/><path d="M 220.568 31.251 L 212.727 31.251 L 212.727 9.433 L 220.568 9.433 L 220.568 31.251 Z M 213.92 6.109 A 3.894 3.894 0 0 0 216.662 7.16 A 3.851 3.851 0 0 0 219.382 6.109 A 4.298 4.298 0 0 0 219.485 6.009 A 3.309 3.309 0 0 0 220.511 3.58 A 3.311 3.311 0 0 0 220.202 2.151 A 3.597 3.597 0 0 0 219.382 1.052 A 3.869 3.869 0 0 0 216.648 0.001 A 3.876 3.876 0 0 0 213.92 1.052 A 4.313 4.313 0 0 0 213.816 1.151 A 3.299 3.299 0 0 0 212.784 3.58 Q 212.784 5.058 213.92 6.109 Z" id="9"/><path d="M 232.386 18.978 L 232.386 31.251 L 224.545 31.251 L 224.545 9.433 L 231.989 9.433 L 231.989 13.58 L 232.216 13.58 Q 232.926 11.507 234.723 10.328 A 7.197 7.197 0 0 1 237.97 9.197 A 9.086 9.086 0 0 1 238.92 9.149 A 8.533 8.533 0 0 1 241.022 9.397 A 6.825 6.825 0 0 1 242.947 10.207 Q 244.659 11.265 245.604 13.112 A 8.477 8.477 0 0 1 246.46 15.982 Q 246.538 16.633 246.534 17.33 L 246.534 31.251 L 238.693 31.251 L 238.693 18.978 A 6.181 6.181 0 0 0 238.693 18.924 Q 238.693 17.637 238.152 16.796 A 2.823 2.823 0 0 0 237.876 16.436 A 2.722 2.722 0 0 0 236.307 15.577 A 4.002 4.002 0 0 0 235.568 15.512 A 3.77 3.77 0 0 0 234.717 15.604 A 2.962 2.962 0 0 0 233.885 15.931 Q 233.168 16.35 232.784 17.124 A 3.651 3.651 0 0 0 232.481 18.033 Q 232.393 18.472 232.386 18.978 Z" id="10"/><path d="M 258.239 18.978 L 258.239 31.251 L 250.398 31.251 L 250.398 9.433 L 257.841 9.433 L 257.841 13.58 L 258.068 13.58 Q 258.778 11.507 260.575 10.328 A 7.197 7.197 0 0 1 263.822 9.197 A 9.086 9.086 0 0 1 264.773 9.149 A 8.533 8.533 0 0 1 266.874 9.397 A 6.825 6.825 0 0 1 268.8 10.207 Q 270.511 11.265 271.456 13.112 A 8.477 8.477 0 0 1 272.312 15.982 Q 272.391 16.633 272.386 17.33 L 272.386 31.251 L 264.545 31.251 L 264.545 18.978 A 6.181 6.181 0 0 0 264.546 18.924 Q 264.546 17.637 264.004 16.796 A 2.823 2.823 0 0 0 263.729 16.436 A 2.722 2.722 0 0 0 262.16 15.577 A 4.002 4.002 0 0 0 261.42 15.512 A 3.77 3.77 0 0 0 260.57 15.604 A 2.962 2.962 0 0 0 259.737 15.931 Q 259.02 16.35 258.636 17.124 A 3.651 3.651 0 0 0 258.333 18.033 Q 258.245 18.472 258.239 18.978 Z" id="11"/></g></svg>