<svg width="200" height="200" viewBox="-20 -25 200 200" xmlns="http://www.w3.org/2000/svg"><g id="svgGroup" stroke-linecap="round" fill-rule="evenodd" font-size="9pt" stroke="#000" stroke-width="2" fill="#ffe3bd" style="stroke:#000;stroke-width:2;fill:#fffbfb"><path d="M 83.563 40.186 L 86.444 31.983 A 162.795 162.795 0 0 1 88.55 26.342 Q 91.622 18.597 94.032 15.52 A 9.641 9.641 0 0 1 94.891 14.551 A 4.879 4.879 0 0 1 95.978 13.917 A 3.772 3.772 0 0 1 97.43 13.623 A 7.091 7.091 0 0 1 98.518 13.703 Q 99.134 13.798 99.656 14.01 A 4.398 4.398 0 0 1 99.725 14.038 A 6.69 6.69 0 0 1 100.977 14.731 A 5.897 5.897 0 0 1 101.434 15.088 A 5.39 5.39 0 0 1 102.462 16.281 A 4.141 4.141 0 0 1 103.094 18.506 Q 103.094 19.239 102.41 20.606 Q 101.951 21.524 101.404 22.818 A 73.59 73.59 0 0 0 100.848 24.17 L 94.647 41.406 A 39.719 39.719 0 0 0 105.779 37.724 A 33.84 33.84 0 0 0 114.227 31.592 A 30.869 30.869 0 0 0 118.115 26.954 Q 121.453 21.99 121.453 16.846 A 12.119 12.119 0 0 0 120.922 13.131 Q 119.747 9.473 115.974 7.802 A 12.755 12.755 0 0 0 115.008 7.422 A 13.003 13.003 0 0 0 112.514 6.818 Q 111.29 6.641 109.906 6.641 A 24.836 24.836 0 0 0 104.728 7.202 A 27.914 27.914 0 0 0 103.973 7.373 A 43.677 43.677 0 0 0 98.016 9.278 A 43.439 43.439 0 0 0 93.296 11.508 Q 91.006 12.775 89.171 14.218 A 25.055 25.055 0 0 0 88.348 14.893 A 3.665 3.665 0 0 1 87.522 15.493 A 2.821 2.821 0 0 1 86.199 15.821 A 5.046 5.046 0 0 1 84.002 15.332 Q 82.977 14.844 82.196 14.063 A 7.593 7.593 0 0 1 81.262 13.015 Q 80.389 11.811 80.389 10.572 A 4.628 4.628 0 0 1 81.537 7.512 A 5.949 5.949 0 0 1 81.658 7.373 A 10.572 10.572 0 0 1 83.135 6.024 Q 83.872 5.464 84.768 4.954 A 17.65 17.65 0 0 1 85.028 4.81 A 25.701 25.701 0 0 1 87.514 3.628 A 33.963 33.963 0 0 1 89.862 2.759 A 56.964 56.964 0 0 1 95.477 1.221 A 56.971 56.971 0 0 1 107.122 0 A 40.541 40.541 0 0 1 113.323 0.456 A 32.766 32.766 0 0 1 117.718 1.441 A 29.447 29.447 0 0 1 121.604 2.893 Q 123.608 3.817 125.205 4.984 A 17.561 17.561 0 0 1 125.653 5.322 A 17.144 17.144 0 0 1 129.716 9.702 A 14.721 14.721 0 0 1 131.951 17.725 L 131.951 18.506 Q 131.512 27.735 124.969 34.766 A 36.441 36.441 0 0 1 116.041 41.662 A 46.585 46.585 0 0 1 110.223 44.385 A 48.974 48.974 0 0 1 102.53 46.751 A 36.767 36.767 0 0 1 94.793 47.608 L 93.524 47.608 A 7.509 7.509 0 0 1 92.45 47.533 A 6.832 6.832 0 0 1 92.303 47.51 A 166.882 166.882 0 0 1 89.76 53.594 Q 86.828 60.21 84.271 64.038 Q 81.241 68.573 78.312 71.686 A 37.48 37.48 0 0 1 77.142 72.876 A 16.495 16.495 0 0 1 75.088 74.592 Q 72.679 76.27 70.379 76.27 Q 68.719 76.27 67.889 75.489 A 6.788 6.788 0 0 1 67.245 74.834 Q 66.569 74.038 66.485 73.304 A 1.824 1.824 0 0 1 66.473 73.096 A 2.724 2.724 0 0 1 66.544 72.451 A 1.718 1.718 0 0 1 67.205 71.436 A 17.929 17.929 0 0 0 70.871 67.649 Q 75.987 60.854 81.802 45.111 A 258.177 258.177 0 0 0 83.563 40.186 Z M 44.744 66.895 L 44.744 64.844 Q 44.744 58.252 48.504 44.629 A 983.274 983.274 0 0 0 42.965 44.782 Q 35.174 45.02 30.487 45.313 A 207.143 207.143 0 0 0 28.24 49.513 A 171.798 171.798 0 0 0 27.02 51.905 L 23.992 57.91 Q 17.987 69.727 13.201 73.487 A 14.235 14.235 0 0 1 9.913 75.489 A 11.275 11.275 0 0 1 5.438 76.416 A 7.565 7.565 0 0 1 3.509 76.185 A 5.128 5.128 0 0 1 0.701 74.365 Q 0.115 73.535 0.018 72.779 A 2.248 2.248 0 0 1 0.004 72.645 Q -0.04 72 0.36 71.778 A 22.115 22.115 0 0 0 6.558 68.295 A 20.046 20.046 0 0 0 9.49 65.381 A 54.442 54.442 0 0 0 12.182 61.679 Q 13.48 59.736 14.778 57.489 A 93.096 93.096 0 0 0 15.643 55.957 L 21.16 46.094 L 18.084 46.533 Q 15.155 47.071 15.155 45.606 A 2.634 2.634 0 0 1 15.58 44.199 Q 16.02 43.492 16.912 42.822 Q 19.756 40.701 22.474 39.915 A 12.572 12.572 0 0 1 22.918 39.795 L 25.018 39.307 A 433.935 433.935 0 0 1 28.785 33.188 Q 32.344 27.523 34.941 23.879 A 69.592 69.592 0 0 1 37.249 20.801 A 148.064 148.064 0 0 1 40.314 17.093 Q 41.857 15.291 43.287 13.756 A 77.202 77.202 0 0 1 44.964 12.012 A 53.201 53.201 0 0 1 52.313 5.811 A 37.337 37.337 0 0 1 58.875 2.158 Q 63.487 0.203 68.025 0.019 A 23.237 23.237 0 0 1 68.963 0 Q 71.013 0 71.971 0.695 A 2.085 2.085 0 0 1 72.332 1.026 A 4.73 4.73 0 0 1 72.975 1.907 Q 73.622 3.073 73.294 4.345 A 3.839 3.839 0 0 1 73.26 4.468 A 47.783 47.783 0 0 1 72.949 5.483 Q 72.584 6.631 72.037 8.202 A 201.457 201.457 0 0 1 71.502 9.717 A 5663.988 5663.988 0 0 0 68.787 17.131 Q 63.798 30.785 62.226 35.365 A 125.482 125.482 0 0 0 61.981 36.084 A 26.723 26.723 0 0 1 62.725 36.048 A 19.525 19.525 0 0 1 63.397 36.035 L 64.471 36.035 A 42.817 42.817 0 0 1 66.272 36.07 Q 69.752 36.217 70.27 36.991 A 0.551 0.551 0 0 1 70.33 37.11 Q 70.425 37.44 70.428 38.294 A 16.197 16.197 0 0 1 70.428 38.355 A 3.546 3.546 0 0 1 70.335 39.133 Q 70.2 39.734 69.866 40.43 A 4.606 4.606 0 0 1 68.776 41.865 A 6.048 6.048 0 0 1 68.035 42.432 Q 65.846 43.919 61.14 44.358 A 40.082 40.082 0 0 1 59.344 44.483 A 291.125 291.125 0 0 0 57.944 49.472 Q 56.062 56.442 55.62 59.842 A 21.312 21.312 0 0 0 55.56 60.352 Q 55.115 64.561 55.791 66.15 A 2.688 2.688 0 0 0 55.853 66.284 A 3.625 3.625 0 0 0 56.325 67.024 A 2.105 2.105 0 0 0 58.001 67.822 A 11.866 11.866 0 0 0 58.897 67.791 Q 59.695 67.73 60.272 67.554 Q 61.151 67.285 61.834 66.944 L 63.104 66.358 A 2.092 2.092 0 0 1 63.645 66.125 A 1.789 1.789 0 0 1 64.105 66.065 Q 64.541 66.065 64.853 66.541 A 2.077 2.077 0 0 1 64.959 66.724 A 2.71 2.71 0 0 1 65.181 67.328 Q 65.254 67.627 65.283 67.981 A 5.897 5.897 0 0 1 65.301 68.457 A 3.245 3.245 0 0 1 65.179 69.302 Q 64.976 70.054 64.433 70.962 A 10.734 10.734 0 0 1 64.398 71.021 A 9.986 9.986 0 0 1 62.387 73.384 A 11.485 11.485 0 0 1 62.03 73.682 Q 58.612 76.416 54.315 76.416 Q 48.169 76.416 45.843 71.323 A 11.918 11.918 0 0 1 45.526 70.557 Q 44.893 68.897 44.773 67.524 A 7.202 7.202 0 0 1 44.744 66.895 Z M 38.787 31.104 L 34.979 37.598 Q 43.67 36.475 51.092 36.28 Q 52.459 32.08 54.022 27.979 L 57.049 20.166 A 283.23 283.23 0 0 1 58.599 16.553 A 244.374 244.374 0 0 1 60.125 13.135 L 62.957 7.129 A 22.917 22.917 0 0 0 55.374 10.83 Q 49.084 15.351 42.889 24.658 Q 40.789 27.783 38.787 31.104 Z"/></g></svg>